<svg xmlns="http://www.w3.org/2000/svg" height="512" width="512" style="width: 312.5px; height: 312.5px; position: absolute; top: 50%; left: 50%; transform: translate(-50%, -50%) scale(1); z-index: 0; cursor: pointer; overflow: visible;"><defs id="SvgjsDefs1001"/><g id="SvgjsG1007" featurekey="rootContainer" transform="matrix(6.25,0,0,6.25,0.31249597668647766,0)" fill="#f3e5f5"><path xmlns="http://www.w3.org/2000/svg" d="M24.95 0a25 25 0 1 0 25 25 25 25 0 0 0-25-25zm0 46.91a22 22 0 1 1 22-22 22 22 0 0 1-22 21.99z"/><path xmlns="http://www.w3.org/2000/svg" d="M24.95 3.65a21.3 21.3 0 1 0 21.3 21.3 21.33 21.33 0 0 0-21.3-21.3z"/></g><g id="SvgjsG1008" featurekey="K5GtsI-0" transform="matrix(3.80807308181269,0,0,3.80807308181269,55.314545683142036,107.22772108229614)" fill="#6200ee"><path d="M3.32 6 l3.56 5.78 l3.72 -5.78 l3.18 0 l0 0.12 l-5.58 8.1 l0 5.78 l-2.64 0 l0 -5.78 l-5.38 -8.1 l0 -0.12 l3.14 0 z M24.14 14.68 l0 -8.7 l2.64 0 l0 14.02 l-1.64 0 l0 0.02 l-7.36 -9.46 l0 9.44 l-2.64 0 l0 -14 l2.14 0 z M29.2 6 l2.64 0 l0 11.56 l7.2 0 l0 2.44 l-9.84 0 l0 -14 z M43.42 13.940000000000001 l0 3.6 l4.04 0 c1.08 0 2.62 -0.36 2.62 -1.68 c0 -1.26 -1.54 -1.92 -2.62 -1.92 l-4.04 0 z M43.42 8.4 l0 3.22 l4.04 0 c1.66 0 2.2 -0.7 2.2 -1.5 c0 -0.64 -0.52 -1.72 -2.2 -1.72 l-4.04 0 z M47.46 6 c2.76 0 4.82 1.24 4.82 4.06 c0 1.08 -0.52 2.12 -1.82 2.7 c1.64 0.5 2.24 2.24 2.24 3.12 c0 3.12 -2.34 4.12 -5.24 4.12 l-6.64 0 l0 -14 l6.64 0 z"/></g></svg>